
<svg t="1743241145913" class="icon" viewBox="0 0 24 24" version="1.1" xmlns="http://www.w3.org/2000/svg" p-id="1581" width="264" height="264">

<path d="M11.5827 15.1068L10.8606 16.7607C10.583 17.3963 9.7033 17.3963 9.42574 16.7607L8.70365 15.1068C8.06105 13.635 6.90441 12.4634 5.46165 11.823L3.47411 10.9408C2.8422 10.6603 2.84221 9.74105 3.47411 9.46057L5.39957 8.60587C6.87943 7.94897 8.05682 6.73401 8.68845 5.21201L9.4199 3.44952C9.69131 2.79547 10.5951 2.79547 10.8665 3.44952L11.5979 5.21203C12.2295 6.73401 13.4069 7.94897 14.8868 8.60587L16.8123 9.46057C17.4441 9.74105 17.4441 10.6603 16.8123 10.9408L14.8247 11.823C13.382 12.4634 12.2253 13.635 11.5827 15.1068Z" fill="url(#paint0_linear_10292_26851823978966)"></path>
<path d="M18.2928 20.3213L18.0897 20.7868C17.9411 21.1275 17.4693 21.1275 17.3207 20.7868L17.1176 20.3213C16.7556 19.4915 16.1036 18.8308 15.29 18.4693L14.6644 18.1913C14.3261 18.041 14.3261 17.5493 14.6644 17.3989L15.255 17.1365C16.0896 16.7657 16.7533 16.0806 17.109 15.2225L17.3175 14.7196C17.4629 14.3691 17.9475 14.3691 18.0929 14.7196L18.3014 15.2225C18.6572 16.0806 19.3209 16.7657 20.1554 17.1365L20.746 17.3989C21.0844 17.5493 21.0844 18.041 20.746 18.1913L20.1204 18.4693C19.3068 18.8308 18.6548 19.4915 18.2928 20.3213Z" fill="url(#paint1_linear_10292_26851856332236)"></path>
<defs>
<linearGradient id="paint0_linear_10292_26851823978966" x1="3.42917" y1="3.41769" x2="20.572" y2="20.5605" gradientUnits="userSpaceOnUse">
<stop stop-color="#1e80ff"></stop>
<stop offset="0.58" stop-color="#8a75ff"></stop>
<stop offset="1" stop-color="#F54DAF"></stop>
</linearGradient>
<linearGradient id="paint1_linear_10292_26851856332236" x1="3.42917" y1="3.41769" x2="20.572" y2="20.5605" gradientUnits="userSpaceOnUse">
<stop stop-color="#8259F5"></stop>
<stop offset="0.58" stop-color="#ea952e"></stop>
<stop offset="1" stop-color="#F54DAF"></stop>
</linearGradient>
</defs>

</svg>